<svg xmlns="http://www.w3.org/2000/svg" viewBox="0 0 276.92 32"><title>資產 3</title><g id="d11d736a-1bb5-47b2-92a5-6a625ca4927e" data-name="圖層 2"><g id="fdf403b5-5027-4d9c-9077-c07810d557f4" data-name="圖層 2"><polygon points="42 13 48 0 35 0 22 0 6 0 0 13 16.31 13 8 32 21 32 29.31 13 42 13" style="fill:#fff"/><polygon points="130.65 18 132.96 13 106.31 13 107.63 10 134.31 10 138.92 0 112 0 99.61 0 99 0 85 32 98 32 124.31 32 128.92 22 102.38 22 104.13 18 130.65 18" style="fill:#fff"/><polygon points="80 0 75.19 11 60.19 11 65 0 52 0 44.7 16.68 43 20 43.25 20 38 32 51 32 56.25 20 71.25 20 66 32 79 32 93 0 80 0" style="fill:#fff"/><polygon points="272.31 10 276.92 0 250 0 237.62 0 237 0 223 32 236 32 262.31 32 266.92 22 240.38 22 242.13 18 268.65 18 270.96 13 244.31 13 245.63 10 272.31 10" style="fill:#fff"/><polygon points="179.96 15 152.44 15 154.63 10 181.31 10 185.92 0 159 0 146.62 0 146 0 132 32 145 32 149.74 21.18 177.11 21.18 179.96 15" style="fill:#fff"/><polygon points="197.81 19 223.65 19 225.96 14 225.88 14 232 0 231.92 0 219.07 0 192.62 0 188 10 214.69 10 212.94 14 200 14 187.31 14 187.07 14 182.7 23.98 179 32 218.31 32 222.92 22 196.5 22 197.81 19" style="fill:#fff"/></g></g></svg>