<svg xmlns="http://www.w3.org/2000/svg" viewBox="0 0 100 100"><title>資產 6</title><g id="318065da-3cd3-4afa-996d-c5e3d837e1b1" data-name="圖層 2"><g id="36fae145-6bff-4bd3-9e9b-bf3055d7f2ff" data-name="圖層 2"><circle cx="50" cy="50" r="50" style="fill:none"/><path d="M54,35V18H46v4H42V18H29a3,3,0,0,0-3,3V79a3,3,0,0,0,3,3H71a3,3,0,0,0,3-3V38H57A3,3,0,0,1,54,35ZM38,22h4v4H38Zm4,48a6.55,6.55,0,0,1-6.43-7.86L38.05,50V46h4V42H38V38h4V34H38V30h4V26h4v4H42v4h4v4H42v4h4v4H42v4h2.76a1.51,1.51,0,0,1,1.48,1.21l2.16,11A6.55,6.55,0,0,1,42,70Zm4.09-6.62c0,1.86-1.81,3.38-4,3.38S38,65.25,38,63.38,39.81,60,42,60,46.11,61.51,46.11,63.38ZM74,33.24V34H58V18h.76a3,3,0,0,1,2.13.88L73.13,31.13A3,3,0,0,1,74,33.24Z" style="fill:#fff"/></g></g></svg>